<?xml version="1.0" standalone="no"?>
<!DOCTYPE svg PUBLIC "-//W3C//DTD SVG 20010904//EN"
 "http://www.w3.org/TR/2001/REC-SVG-20010904/DTD/svg10.dtd">
<svg version="1.0" xmlns="http://www.w3.org/2000/svg"
 width="1648.000000pt" height="560.000000pt" viewBox="0 0 1648.000000 560.000000"
 preserveAspectRatio="xMidYMid meet">

<g transform="translate(0.000000,560.000000) scale(0.100000,-0.100000)"
fill="#000000" stroke="none">
<path d="M2550 5160 c-80 -10 -238 -36 -305 -50 -91 -18 -332 -95 -349 -111
-6 -5 -16 -9 -24 -9 -8 0 -62 -23 -121 -52 -393 -191 -706 -467 -959 -848 -63
-94 -194 -349 -207 -403 -4 -15 -11 -30 -16 -33 -5 -3 -9 -12 -9 -21 0 -8 -6
-29 -14 -46 -13 -28 -36 -104 -66 -217 -38 -137 -80 -467 -80 -620 1 -203 66
-627 109 -710 5 -9 12 -31 16 -50 4 -19 11 -39 14 -45 4 -5 13 -29 20 -52 13
-48 15 -49 68 -29 70 26 138 44 188 51 28 4 64 11 80 15 17 5 93 14 170 19
303 21 696 -55 1030 -199 106 -46 121 -50 187 -50 l69 0 -15 27 c-30 53 -76
188 -82 240 -9 69 6 91 89 131 93 46 94 45 95 -40 0 -40 8 -94 16 -120 18 -53
87 -178 99 -178 16 0 0 89 -42 230 -14 45 -14 116 -1 141 9 16 22 19 73 19 63
0 188 -22 242 -42 144 -54 241 -106 360 -193 61 -45 111 -73 190 -106 45 -19
176 -39 257 -39 89 0 157 11 215 36 18 7 34 10 36 6 15 -24 -71 -214 -140
-311 l-17 -23 330 5 c252 3 346 8 404 20 41 9 109 24 150 33 41 9 104 24 140
34 157 43 173 58 242 220 76 178 125 352 167 585 31 174 36 508 11 695 -21
150 -61 355 -72 366 -5 4 -8 15 -8 25 0 19 -53 184 -75 234 -8 17 -23 53 -35
80 -96 225 -256 465 -435 654 -72 75 -238 217 -335 286 -118 83 -334 205 -455
255 -11 5 -41 18 -67 29 -26 12 -54 21 -62 21 -8 0 -17 4 -20 9 -4 5 -24 12
-46 16 -22 4 -42 10 -45 15 -3 5 -24 11 -48 15 -23 4 -46 10 -52 14 -13 8
-110 28 -200 42 -38 5 -92 15 -120 21 -63 13 -459 19 -545 8z m-634 -656 c11
-25 21 -33 54 -38 23 -3 49 -11 58 -16 9 -5 29 -11 45 -15 30 -6 37 -25 10
-25 -10 0 -49 -10 -86 -22 -76 -25 -86 -36 -107 -126 -6 -28 -15 -54 -19 -56
-4 -3 -15 23 -25 57 -21 71 -50 117 -73 117 -9 0 -30 4 -47 10 -17 5 -44 14
-61 19 -34 10 -35 9 71 41 56 16 73 26 77 43 3 12 11 42 17 67 6 25 16 58 22
74 12 29 12 28 31 -35 10 -35 25 -78 33 -95z m2119 -131 c207 -77 350 -208
435 -396 45 -102 78 -287 50 -287 -5 0 -10 5 -10 10 0 6 -18 30 -40 54 -98
106 -264 123 -384 38 -93 -66 -119 -198 -62 -317 31 -66 78 -135 157 -229 73
-88 153 -224 186 -321 49 -140 62 -221 70 -422 11 -270 -53 -466 -203 -623
-41 -42 -93 -85 -121 -99 -26 -13 -56 -28 -65 -32 -9 -5 -35 -12 -57 -15 l-41
-7 16 49 c35 109 54 296 54 527 0 229 -45 377 -178 587 -40 64 -159 189 -217
229 -125 87 -229 127 -410 158 -40 7 -49 16 -75 71 -53 112 -63 160 -64 302 0
137 7 177 54 305 39 106 101 201 178 273 49 46 171 122 194 122 8 0 18 4 24 9
8 7 83 32 139 45 11 3 81 3 155 2 121 -3 143 -7 215 -33z m-2524 -290 c17 -54
27 -73 40 -73 10 0 20 -3 22 -8 3 -4 37 -18 76 -32 39 -13 71 -27 71 -31 0 -4
-13 -10 -28 -14 -49 -10 -147 -53 -154 -67 -4 -7 -14 -40 -24 -73 -28 -104
-30 -109 -40 -112 -6 -2 -18 20 -28 49 -10 29 -21 62 -26 73 -4 11 -12 32 -18
46 -8 20 -26 31 -84 51 -40 14 -85 29 -100 32 -39 9 -35 23 9 31 21 4 42 10
48 13 5 4 34 14 64 22 46 13 56 20 63 45 5 17 13 39 18 50 5 11 16 46 26 79
l17 58 13 -33 c7 -19 22 -67 35 -106z m868 23 c38 -41 63 -139 67 -261 l2
-110 139 -108 c76 -59 154 -118 173 -132 19 -13 73 -54 120 -91 47 -36 108
-83 135 -104 28 -20 59 -47 69 -59 16 -17 30 -21 84 -21 66 0 202 -22 257 -42
94 -34 165 -78 237 -147 106 -101 190 -231 228 -356 7 -22 17 -50 21 -63 5
-13 14 -77 19 -142 26 -296 -61 -510 -244 -596 l-38 -19 -31 40 c-51 65 -108
117 -183 167 -146 96 -174 156 -174 374 0 171 17 237 83 322 33 43 38 55 26
63 -8 5 -19 9 -25 9 -6 0 -41 15 -78 34 -37 19 -80 39 -97 45 -45 16 -34 40
38 81 35 19 63 38 63 43 0 13 -90 7 -120 -8 -15 -8 -38 -30 -50 -50 -15 -24
-29 -35 -45 -35 -39 0 -147 -28 -191 -49 -39 -19 -66 -45 -127 -125 -15 -20
-37 -36 -47 -36 -35 0 -134 -61 -193 -118 -33 -32 -99 -110 -149 -174 -81
-107 -93 -118 -121 -118 -51 0 -123 23 -259 83 -156 68 -221 82 -325 67 -42
-5 -82 -15 -88 -20 -30 -25 -34 43 -5 99 24 48 81 97 135 115 91 32 127 37
280 44 l160 7 3 44 c4 57 -17 127 -46 157 -32 32 -100 51 -207 59 -151 12
-252 43 -320 99 -29 23 -30 27 -30 108 0 73 4 90 32 145 51 100 111 182 207
281 98 102 197 173 278 202 40 14 55 25 68 51 56 116 124 214 170 245 44 30
71 30 99 0z m720 -1237 c97 -31 148 -51 171 -69 l24 -18 -27 -50 c-49 -91 -68
-167 -73 -302 -4 -91 -1 -150 11 -215 23 -127 29 -205 16 -205 -6 0 -39 17
-74 39 -35 21 -99 55 -142 75 -44 21 -87 41 -95 45 -9 5 -31 12 -50 16 -19 4
-40 11 -46 16 -24 19 -220 34 -301 22 -90 -13 -93 -12 -93 62 0 92 42 197 108
267 53 57 106 89 176 109 41 12 53 22 81 64 40 62 65 85 135 123 60 34 118 40
179 21z"/>
<path d="M1945 3556 c-25 -20 -30 -31 -30 -69 0 -60 24 -87 79 -87 61 0 86 21
86 75 0 57 -7 73 -41 90 -39 21 -59 19 -94 -9z"/>
<path d="M10266 4995 c-85 -22 -172 -72 -240 -137 -54 -52 -58 -59 -52 -90 7
-37 38 -68 68 -68 11 0 43 20 72 44 174 150 380 150 554 1 31 -26 64 -45 77
-45 28 0 75 46 75 74 0 53 -136 162 -253 203 -90 32 -216 39 -301 18z"/>
<path d="M10310 4741 c-84 -26 -180 -108 -180 -155 0 -34 37 -76 67 -76 14 0
41 14 61 31 90 79 177 78 270 -2 37 -33 70 -37 101 -11 29 22 30 74 4 110 -26
36 -105 89 -151 102 -42 11 -135 12 -172 1z"/>
<path d="M6857 4450 c-231 -37 -405 -122 -567 -277 -140 -133 -234 -299 -277
-486 -23 -99 -23 -355 0 -454 69 -303 291 -568 576 -688 266 -112 615 -111
861 3 l65 30 110 -108 110 -108 159 165 159 164 -91 92 c-51 51 -92 96 -92 99
0 4 16 33 37 65 48 75 97 199 119 298 22 104 23 331 1 430 -85 380 -363 660
-748 755 -96 24 -328 35 -422 20z m298 -492 c70 -17 158 -71 220 -134 105
-106 152 -233 142 -389 -5 -77 -19 -148 -34 -165 -2 -2 -60 52 -128 120 l-125
125 -162 -163 -163 -162 114 -114 c128 -128 128 -126 -4 -126 -295 0 -510 238
-492 545 7 112 36 197 92 274 124 169 330 241 540 189z"/>
<path d="M8200 3841 c0 -621 4 -689 46 -821 36 -113 88 -194 194 -301 126
-127 241 -192 416 -236 96 -23 342 -23 438 0 175 44 290 109 416 236 106 107
158 188 194 301 42 132 46 200 46 821 l0 589 -255 0 -254 0 -3 -618 -3 -617
-33 -67 c-65 -132 -176 -199 -327 -199 -150 0 -270 72 -332 200 l-28 56 -3
623 -3 622 -254 0 -255 0 0 -589z"/>
<path d="M10140 3460 l0 -970 255 0 255 0 0 970 0 970 -255 0 -255 0 0 -970z"/>
<path d="M10850 3460 l0 -970 705 0 705 0 0 230 0 230 -450 0 -450 0 0 740 0
740 -255 0 -255 0 0 -970z"/>
<path d="M12400 3460 l0 -970 705 0 705 0 0 230 0 230 -450 0 -450 0 0 740 0
740 -255 0 -255 0 0 -970z"/>
<path d="M14275 3469 c-220 -529 -401 -966 -403 -970 -2 -5 115 -9 261 -9
l265 0 58 145 58 145 370 0 371 0 55 -142 56 -143 266 -3 266 -2 -88 212 c-49
117 -230 554 -402 970 l-313 758 -210 0 -210 0 -400 -961z m705 0 c50 -123 90
-229 90 -236 0 -10 -41 -13 -185 -13 -141 0 -185 3 -185 13 0 17 182 469 187
464 2 -2 44 -105 93 -228z"/>
<path d="M11738 2230 c-143 -26 -256 -85 -359 -190 -126 -127 -179 -260 -179
-450 0 -190 53 -323 179 -450 85 -86 168 -136 281 -172 62 -19 97 -23 205 -23
116 0 139 3 218 29 196 64 349 210 414 396 34 98 42 260 20 367 -49 227 -231
416 -462 478 -70 19 -249 28 -317 15z m270 -340 c69 -35 125 -92 156 -159 33
-72 30 -207 -6 -283 -35 -76 -103 -141 -176 -168 -46 -18 -72 -21 -137 -18
-126 7 -215 65 -270 175 -26 52 -29 68 -30 153 0 76 4 104 21 141 32 69 91
128 159 161 51 24 73 28 141 28 70 0 89 -4 142 -30z"/>
<path d="M15290 2222 c-179 -47 -291 -184 -294 -362 -1 -108 24 -178 91 -250
63 -69 143 -111 323 -170 142 -48 167 -59 194 -89 16 -17 18 -27 10 -49 -31
-90 -248 -80 -309 14 l-20 31 -165 -34 c-90 -19 -166 -35 -167 -37 -2 -2 13
-35 32 -74 98 -195 368 -302 626 -248 137 29 253 116 305 229 25 55 29 73 29
162 0 93 -2 105 -33 167 -19 39 -49 80 -70 98 -62 51 -180 106 -312 145 -138
41 -155 48 -187 78 -30 27 -29 61 3 86 51 40 198 19 211 -29 3 -11 8 -20 12
-20 31 0 321 65 321 72 0 32 -58 123 -105 167 -125 114 -321 158 -495 113z"/>
<path d="M6040 1590 l0 -630 160 0 160 0 2 344 3 345 269 -345 269 -344 149 0
148 0 0 630 0 630 -160 0 -160 0 -2 -345 -3 -345 -269 345 -270 345 -148 0
-148 0 0 -630z"/>
<path d="M7330 1590 l0 -630 480 0 480 0 0 150 0 150 -315 0 -315 0 0 95 0 95
260 0 260 0 0 150 0 150 -260 0 -260 0 0 85 0 85 310 0 310 0 0 150 0 150
-475 0 -475 0 0 -630z"/>
<path d="M8360 2070 l0 -150 180 0 180 0 0 -480 0 -480 165 0 165 0 0 480 0
480 180 0 180 0 0 150 0 150 -525 0 -525 0 0 -150z"/>
<path d="M9450 2213 c0 -4 93 -288 207 -630 l208 -623 137 0 137 0 9 33 c39
139 187 624 192 630 4 4 51 -143 106 -328 l99 -335 137 0 136 0 210 630 210
630 -168 0 -169 0 -25 -82 c-13 -46 -59 -202 -101 -348 -43 -146 -80 -268 -84
-272 -4 -4 -40 106 -80 245 -40 138 -87 298 -104 355 l-30 102 -136 0 -136 0
-99 -348 c-55 -191 -102 -350 -106 -355 -3 -4 -54 151 -111 345 l-105 353
-167 3 c-92 1 -167 -1 -167 -5z"/>
<path d="M12650 1590 l0 -630 165 0 165 0 0 190 0 191 101 -3 102 -3 106 -187
106 -187 183 -1 183 0 -12 23 c-6 12 -63 111 -126 220 l-114 199 65 59 c136
125 180 310 116 482 -46 122 -197 241 -339 267 -29 6 -199 10 -377 10 l-324 0
0 -630z m649 312 c52 -26 76 -65 76 -122 0 -57 -24 -96 -76 -122 -28 -15 -61
-18 -176 -18 l-143 0 0 140 0 140 143 0 c115 0 148 -3 176 -18z"/>
<path d="M13860 1590 l0 -630 165 0 165 0 0 246 0 246 197 -246 197 -246 210
0 c198 0 208 1 194 18 -8 9 -126 155 -261 323 l-245 305 240 305 240 304 -202
3 c-128 1 -207 -1 -215 -8 -7 -5 -88 -107 -181 -225 l-169 -214 -3 224 -2 225
-165 0 -165 0 0 -630z"/>
<path d="M1150 1833 c0 -7 71 -43 84 -43 17 0 277 -166 346 -220 47 -38 213
-198 370 -357 300 -304 448 -435 627 -556 180 -122 330 -207 365 -207 9 0 19
-4 22 -9 5 -8 81 -23 176 -34 19 -2 89 4 155 14 163 24 257 47 342 85 17 8 34
14 38 14 12 0 195 94 195 101 0 3 -35 9 -77 12 -96 6 -264 53 -393 109 -99 43
-119 52 -230 107 -174 87 -456 263 -680 425 -36 25 -92 66 -124 89 -32 23 -80
57 -105 75 -106 76 -247 165 -334 210 -177 92 -413 165 -573 177 -44 3 -107 8
-141 11 -35 2 -63 1 -63 -3z"/>
<path d="M675 1763 c-54 -9 -55 -17 -13 -100 44 -86 127 -226 170 -288 16 -22
36 -51 45 -65 39 -57 178 -212 271 -301 202 -194 450 -361 702 -473 73 -32
222 -86 239 -86 9 0 21 -4 27 -9 10 -10 70 -25 184 -47 136 -26 204 -33 305
-33 l100 0 -25 20 c-63 51 -175 144 -180 149 -3 4 -52 44 -110 90 -238 191
-369 313 -656 610 -288 300 -464 436 -626 483 -134 40 -347 65 -433 50z"/>
<path d="M2310 1556 c0 -10 352 -250 510 -348 52 -32 102 -63 110 -68 189
-116 487 -258 625 -297 163 -47 220 -55 380 -55 242 -1 258 5 466 188 95 84
329 337 329 357 0 9 -53 0 -80 -14 -100 -52 -733 -90 -985 -59 -44 5 -118 14
-165 20 -108 13 -294 49 -437 84 -35 9 -89 22 -120 30 -78 20 -157 41 -220 60
-29 9 -77 23 -105 32 -152 45 -308 81 -308 70z"/>
</g>
</svg>
